<svg id="Layer_1" data-name="Layer 1" xmlns="http://www.w3.org/2000/svg" viewBox="0 0 850 250"><defs><style>.cls-1{fill:#963232;}.cls-2,.cls-5{fill:none;stroke:#fff;stroke-miterlimit:10;}.cls-2{stroke-width:3px;}.cls-3{font-size:100px;font-family:CrimsonText-Regular, Crimson Text;}.cls-3,.cls-4{fill:#fff;}</style></defs><path class="cls-1" d="M810.48,0h-770A51.69,51.69,0,0,1,.5,40.5v169a51.69,51.69,0,0,1,40,40.5h770a51.69,51.69,0,0,1,40-40.5V40.5A51.69,51.69,0,0,1,810.48,0Z"/><path class="cls-2" d="M801.42,10H49.58c-4,18.72-19.45,33.46-39.08,37.26V202.74c19.63,3.8,35.09,18.54,39.08,37.26H801.42c4-18.72,19.45-33.46,39.08-37.26V47.26C820.87,43.46,805.41,28.72,801.42,10Z"/><text class="cls-3" transform="translate(82.78 119.58)">OSCEOLA MILL</text><path class="cls-4" d="M253,172.39c.56,0,1.29.06,2.2.08s1.8,0,2.68,0c1.26,0,2.45,0,3.6,0l2.44,0q4.2,0,6.32,1.76a5.63,5.63,0,0,1,2.12,4.52,6.74,6.74,0,0,1-.58,2.74,6.43,6.43,0,0,1-1.92,2.44,10.16,10.16,0,0,1-3.58,1.78v.08a12.55,12.55,0,0,1,4.94,1.5,6.46,6.46,0,0,1,2.5,2.58,7.31,7.31,0,0,1-1.82,8.7,10.47,10.47,0,0,1-7.06,2.18c-.58,0-1.47,0-2.64-.06s-2.59-.06-4.24-.06l-2.76,0c-.91,0-1.64,0-2.2.1v-.8a8,8,0,0,0,2.06-.32,1.43,1.43,0,0,0,.94-1,7.28,7.28,0,0,0,.24-2.16V176.63a7.3,7.3,0,0,0-.24-2.18,1.52,1.52,0,0,0-.94-1,7,7,0,0,0-2.06-.3Zm9.92.8a3.1,3.1,0,0,0-2.4.68,4.72,4.72,0,0,0-.56,2.76v19.84a4.21,4.21,0,0,0,.58,2.7,3.35,3.35,0,0,0,2.42.62c2.61,0,4.52-.6,5.7-1.82a7.08,7.08,0,0,0,1.78-5.18,6.48,6.48,0,0,0-1.66-4.76c-1.1-1.12-2.93-1.68-5.46-1.68h-4.12v-.68h3.44a6.25,6.25,0,0,0,3.64-.9,4.52,4.52,0,0,0,1.76-2.4,10.49,10.49,0,0,0,.48-3.22,6.63,6.63,0,0,0-1.3-4.46C266.31,173.69,264.88,173.19,262.88,173.19Z"/><path class="cls-4" d="M297.56,172.39c-.11.94-.18,1.84-.22,2.72s-.06,1.55-.06,2,0,.94,0,1.38.05.81.08,1.1h-.92a19.48,19.48,0,0,0-.68-3.74,3.21,3.21,0,0,0-1.5-2,6.93,6.93,0,0,0-3.18-.58H287.8a7.55,7.55,0,0,0-2.06.22,1.4,1.4,0,0,0-.94.92,7.3,7.3,0,0,0-.24,2.18v19.84a7.28,7.28,0,0,0,.24,2.16,1.37,1.37,0,0,0,.94.94,7.17,7.17,0,0,0,2.06.22h2.92a8.39,8.39,0,0,0,3.82-.68,3.94,3.94,0,0,0,1.88-2.22,17.41,17.41,0,0,0,.86-4.18h.92a27.31,27.31,0,0,0-.12,2.88c0,.51,0,1.24.06,2.18s.11,1.93.22,2.94c-1.36-.05-2.89-.08-4.6-.1l-4.56,0H286l-4.22,0c-1.49,0-2.89,0-4.2.1v-.8a8.07,8.07,0,0,0,2.06-.32,1.43,1.43,0,0,0,.94-1,7.28,7.28,0,0,0,.24-2.16V176.63a7.3,7.3,0,0,0-.24-2.18,1.52,1.52,0,0,0-.94-1,7,7,0,0,0-2.06-.3v-.8l4.2.08c1.49,0,2.9,0,4.22,0h3.18c1.23,0,2.62,0,4.18,0S296.33,172.45,297.56,172.39Zm-6.88,13.68v.8h-7.32v-.8Zm1.16-5.28c-.11,1.52-.15,2.68-.14,3.48s0,1.54,0,2.2,0,1.4,0,2.2.09,2,.2,3.48H291c-.11-.85-.23-1.68-.38-2.5a3.87,3.87,0,0,0-1-2,3.34,3.34,0,0,0-2.5-.78v-.8a2.9,2.9,0,0,0,2.46-.92,4.65,4.65,0,0,0,.9-2.16c.13-.82.25-1.56.36-2.2Z"/><path class="cls-4" d="M312.88,172.39q7.15,0,10.64,3.58T327,186.23a16.16,16.16,0,0,1-1.7,7.62,12,12,0,0,1-4.94,5.06,15.91,15.91,0,0,1-7.84,1.8c-.58,0-1.45,0-2.6-.06s-2.15-.06-3-.06l-2.76,0c-.91,0-1.64,0-2.2.1v-.8a8,8,0,0,0,2.06-.32,1.43,1.43,0,0,0,.94-1,7.28,7.28,0,0,0,.24-2.16V176.63a7.3,7.3,0,0,0-.24-2.18,1.52,1.52,0,0,0-.94-1,7,7,0,0,0-2.06-.3v-.8l2.2.1c.91,0,1.8,0,2.68,0l3.16-.08C311.18,172.41,312.14,172.39,312.88,172.39Zm-1,.72a3.1,3.1,0,0,0-2.4.68,4.72,4.72,0,0,0-.56,2.76v20a4.5,4.5,0,0,0,.58,2.76,3.15,3.15,0,0,0,2.42.68,12.18,12.18,0,0,0,6.76-1.58,8.29,8.29,0,0,0,3.36-4.62,24.76,24.76,0,0,0,1-7.4q0-6.72-2.46-10C318.9,174.21,316,173.11,311.88,173.11Z"/><path class="cls-4" d="M351.44,172.63A8.16,8.16,0,0,1,354,173a5.49,5.49,0,0,1,1.64.86,4,4,0,0,1,1.14,1.38,3.32,3.32,0,0,1,.34,1.38,1.87,1.87,0,0,1-.7,1.56,2.38,2.38,0,0,1-1.54.56,2.22,2.22,0,0,1-1.44-.52,1.78,1.78,0,0,1-.64-1.48,2.1,2.1,0,0,1,.6-1.5,2.38,2.38,0,0,1,1.52-.7,1.69,1.69,0,0,0-1-.9,5,5,0,0,0-2.06-.38,4.7,4.7,0,0,0-3.34,1.22,4.63,4.63,0,0,0-1.3,3.54,6.64,6.64,0,0,0,.42,2.28,5.89,5.89,0,0,0,1.62,2.28c.45-.08.92-.14,1.4-.18s.84-.06,1.08-.06c1.07,0,1.6.31,1.6.92a.63.63,0,0,1-.3.56,1.4,1.4,0,0,1-.82.2,4.19,4.19,0,0,1-1.6-.34l-1.32-.54a8.26,8.26,0,0,0-3.76,2.22,6.13,6.13,0,0,0-1.44,4.34,7.58,7.58,0,0,0,1.44,4.68,9.17,9.17,0,0,0,3.86,2.94,13.82,13.82,0,0,0,5.42,1,15.48,15.48,0,0,0,4-.5,11.14,11.14,0,0,0,3.36-1.46,7.53,7.53,0,0,0,2.3-2.3,5.62,5.62,0,0,0,.84-3.06,8,8,0,0,0-.32-1.94,5.85,5.85,0,0,0-1.32-2.32A6.59,6.59,0,0,0,360.6,185l.48-.4a7.16,7.16,0,0,1,4.16,2.82,7.88,7.88,0,0,1,1.24,4.34,8.26,8.26,0,0,1-1.44,4.6,10.5,10.5,0,0,1-4.16,3.58,14.44,14.44,0,0,1-6.6,1.38,16.87,16.87,0,0,1-6.4-1.2,11.47,11.47,0,0,1-4.76-3.44,8.21,8.21,0,0,1-1.8-5.32,7.63,7.63,0,0,1,.84-3.7,8.42,8.42,0,0,1,2.08-2.54,11.18,11.18,0,0,1,2.48-1.54,15.65,15.65,0,0,1,2-.74,7.13,7.13,0,0,1-3-2.28,4.82,4.82,0,0,1-1-2.88,4.23,4.23,0,0,1,.44-1.86,5,5,0,0,1,1.28-1.62,6,6,0,0,1,2.1-1.12A10,10,0,0,1,351.44,172.63Zm14.56-.8a6.26,6.26,0,0,1,4.16,1.42,4.94,4.94,0,0,1,1.68,4,5.33,5.33,0,0,1-1.1,3.42,7.86,7.86,0,0,1-2.7,2.18,21,21,0,0,1-2.42,1c-1,.35-2.07.7-3.2,1l-3.24,1c-1,.34-1.86.62-2.5.86a9.41,9.41,0,0,0-2.5,1.38,2.59,2.59,0,0,0-1,2.1,2.65,2.65,0,0,0,.6,1.76,3.79,3.79,0,0,0,1.46,1.08,4.18,4.18,0,0,0,1.62.36,5.8,5.8,0,0,0,1.42-.22c.57-.14.9-.36,1-.66a3,3,0,0,1-1.26-.58,1.69,1.69,0,0,1-.62-1.46A1.91,1.91,0,0,1,358,189a2.31,2.31,0,0,1,1.56-.56,2,2,0,0,1,1.54.6,2.14,2.14,0,0,1,.58,1.56,2.67,2.67,0,0,1-.74,1.9,4.49,4.49,0,0,1-1.84,1.16,6.46,6.46,0,0,1-2.18.38,5.91,5.91,0,0,1-2.28-.48,4.54,4.54,0,0,1-1.92-1.5,4.39,4.39,0,0,1-.76-2.7,4.82,4.82,0,0,1,1.4-3.5,10.54,10.54,0,0,1,4.12-2.34c.8-.26,1.77-.56,2.92-.88s2.33-.66,3.54-1a25.62,25.62,0,0,0,3.3-1.24,7.1,7.1,0,0,0,2.72-1.88,3.23,3.23,0,0,0,.72-2,3.63,3.63,0,0,0-1.38-2.88,4.93,4.93,0,0,0-3.26-1.16,3.53,3.53,0,0,0-.8.08.55.55,0,0,0-.4.28,2,2,0,0,1,.84.8,2.17,2.17,0,0,1,.28,1,1.76,1.76,0,0,1-.66,1.4,2.42,2.42,0,0,1-3,.06,1.74,1.74,0,0,1-.68-1.5,2,2,0,0,1,.7-1.64,4.29,4.29,0,0,1,1.72-.86A8.16,8.16,0,0,1,366,171.83Z"/><path class="cls-4" d="M384.28,172.39c.56,0,1.29.06,2.2.08s1.8,0,2.68,0c1.25,0,2.45,0,3.6,0l2.44,0q4.2,0,6.32,1.76a5.63,5.63,0,0,1,2.12,4.52,6.74,6.74,0,0,1-.58,2.74,6.53,6.53,0,0,1-1.92,2.44,10.16,10.16,0,0,1-3.58,1.78v.08a12.55,12.55,0,0,1,4.94,1.5,6.46,6.46,0,0,1,2.5,2.58,7.31,7.31,0,0,1-1.82,8.7,10.47,10.47,0,0,1-7.06,2.18q-.89,0-2.64-.06c-1.17,0-2.59-.06-4.24-.06l-2.76,0c-.91,0-1.64,0-2.2.1v-.8a8.07,8.07,0,0,0,2.06-.32,1.43,1.43,0,0,0,.94-1,7.28,7.28,0,0,0,.24-2.16V176.63a7.3,7.3,0,0,0-.24-2.18,1.52,1.52,0,0,0-.94-1,7,7,0,0,0-2.06-.3Zm9.92.8a3.1,3.1,0,0,0-2.4.68,4.72,4.72,0,0,0-.56,2.76v19.84a4.21,4.21,0,0,0,.58,2.7,3.35,3.35,0,0,0,2.42.62c2.61,0,4.51-.6,5.7-1.82a7.08,7.08,0,0,0,1.78-5.18,6.48,6.48,0,0,0-1.66-4.76q-1.67-1.68-5.46-1.68h-4.12v-.68h3.44a6.27,6.27,0,0,0,3.64-.9,4.57,4.57,0,0,0,1.76-2.4,10.49,10.49,0,0,0,.48-3.22,6.63,6.63,0,0,0-1.3-4.46C397.63,173.69,396.2,173.19,394.2,173.19Z"/><path class="cls-4" d="M408.92,172.39c.56,0,1.29.06,2.2.08s1.8,0,2.68,0c1.25,0,2.45,0,3.6,0l2.44,0q4.85,0,7.24,2a6.22,6.22,0,0,1,2.4,5A7.68,7.68,0,0,1,429,182a6.91,6.91,0,0,1-1.66,2.56,8.93,8.93,0,0,1-3.22,2,14.6,14.6,0,0,1-5.16.78h-3.84v-.8h3.44a8.54,8.54,0,0,0,4.34-.9,4.57,4.57,0,0,0,2-2.4,9.79,9.79,0,0,0,.54-3.34,7.29,7.29,0,0,0-1.5-4.9q-1.5-1.74-5.14-1.74a3.1,3.1,0,0,0-2.4.68,4.72,4.72,0,0,0-.56,2.76v19.84a7.28,7.28,0,0,0,.24,2.16,1.43,1.43,0,0,0,.94,1,8.07,8.07,0,0,0,2.06.32v.8c-.61-.05-1.38-.08-2.3-.1l-2.78,0-2.92,0c-.91,0-1.64,0-2.2.1v-.8a8.07,8.07,0,0,0,2.06-.32,1.43,1.43,0,0,0,.94-1,7.28,7.28,0,0,0,.24-2.16V176.63a7.3,7.3,0,0,0-.24-2.18,1.52,1.52,0,0,0-.94-1,7,7,0,0,0-2.06-.3Zm6.36,14.2c1.44.06,2.57.12,3.4.18l2,.18c.52.06,1,.12,1.5.2a7.08,7.08,0,0,1,3.86,1.62,7.37,7.37,0,0,1,1.74,3.66l1,4.08a10.88,10.88,0,0,0,.82,2.54,1.3,1.3,0,0,0,1.3.74,1.81,1.81,0,0,0,1.14-.44,6.73,6.73,0,0,0,1-1.08l.6.44a7.57,7.57,0,0,1-1.74,1.9,4.24,4.24,0,0,1-2.54.66,4.07,4.07,0,0,1-2.6-.88,5.84,5.84,0,0,1-1.68-3.44l-.88-4a21.58,21.58,0,0,0-.82-3,4.73,4.73,0,0,0-1.28-2,3.57,3.57,0,0,0-2.42-.72h-4.32Z"/><path class="cls-4" d="M454.8,172.39c-.11.94-.18,1.84-.22,2.72s-.06,1.55-.06,2,0,.94,0,1.38.05.81.08,1.1h-.92a19.48,19.48,0,0,0-.68-3.74,3.21,3.21,0,0,0-1.5-2,6.93,6.93,0,0,0-3.18-.58H445a7.55,7.55,0,0,0-2.06.22,1.4,1.4,0,0,0-.94.92,7.3,7.3,0,0,0-.24,2.18v19.84a7.28,7.28,0,0,0,.24,2.16,1.37,1.37,0,0,0,.94.94,7.17,7.17,0,0,0,2.06.22H448a8.39,8.39,0,0,0,3.82-.68,3.94,3.94,0,0,0,1.88-2.22,17.41,17.41,0,0,0,.86-4.18h.92a27.31,27.31,0,0,0-.12,2.88c0,.51,0,1.24.06,2.18s.11,1.93.22,2.94c-1.36-.05-2.89-.08-4.6-.1l-4.56,0h-3.18l-4.22,0c-1.49,0-2.89,0-4.2.1v-.8a8.07,8.07,0,0,0,2.06-.32,1.43,1.43,0,0,0,.94-1,7.28,7.28,0,0,0,.24-2.16V176.63a7.3,7.3,0,0,0-.24-2.18,1.52,1.52,0,0,0-.94-1,7,7,0,0,0-2.06-.3v-.8l4.2.08c1.49,0,2.9,0,4.22,0h3.18c1.23,0,2.62,0,4.18,0S453.57,172.45,454.8,172.39Zm-6.88,13.68v.8H440.6v-.8Zm1.16-5.28c-.11,1.52-.15,2.68-.14,3.48s0,1.54,0,2.2,0,1.4,0,2.2.09,2,.2,3.48h-.92c-.11-.85-.23-1.68-.38-2.5a3.87,3.87,0,0,0-1-2,3.34,3.34,0,0,0-2.5-.78v-.8a2.9,2.9,0,0,0,2.46-.92,4.65,4.65,0,0,0,.9-2.16c.13-.82.25-1.56.36-2.2Z"/><path class="cls-4" d="M470.44,172.19l9.76,25.16a4.14,4.14,0,0,0,1.36,2,2.81,2.81,0,0,0,1.4.54v.8c-.53-.05-1.19-.08-2-.1l-2.32,0-2.92,0c-.91,0-1.64,0-2.2.1v-.8a3.84,3.84,0,0,0,2.6-.7c.37-.41.29-1.3-.24-2.66l-7.44-19.88.64-.52-7,18.08a9.21,9.21,0,0,0-.8,3.38,1.92,1.92,0,0,0,.92,1.74,5.25,5.25,0,0,0,2.56.56v.8c-.75-.05-1.53-.08-2.34-.1l-2.26,0-1.7,0c-.47,0-.9,0-1.3.1v-.8a3.92,3.92,0,0,0,1.64-.94,6.33,6.33,0,0,0,1.52-2.54l9.4-24.24h.64Zm4.88,17v.8H463.4l.4-.8Z"/><path class="cls-4" d="M493.8,172.39v.8a7,7,0,0,0-2.06.3,1.52,1.52,0,0,0-.94,1,7.3,7.3,0,0,0-.24,2.18v19.84a7.28,7.28,0,0,0,.24,2.16,1.43,1.43,0,0,0,.94,1,8.07,8.07,0,0,0,2.06.32v.8c-.61-.05-1.38-.08-2.3-.1l-2.78,0-2.92,0c-.91,0-1.64,0-2.2.1v-.8a8.07,8.07,0,0,0,2.06-.32,1.43,1.43,0,0,0,.94-1,7.28,7.28,0,0,0,.24-2.16V176.63a7.3,7.3,0,0,0-.24-2.18,1.52,1.52,0,0,0-.94-1,7,7,0,0,0-2.06-.3v-.8c.56,0,1.29.06,2.2.08s1.88,0,2.92,0,1.86,0,2.78,0S493.19,172.42,493.8,172.39Zm12.72,0v.8a6.87,6.87,0,0,0-2.4.8,8.12,8.12,0,0,0-2.32,2.12L494.08,186l.88-2,9.6,13.44A5.86,5.86,0,0,0,506,199a6,6,0,0,0,2,.88v.8c-.64-.05-1.43-.08-2.38-.1l-2.42,0-1.66,0-2.46.1v-.8a2.63,2.63,0,0,0,1.72-.48c.24-.26.15-.7-.28-1.32l-5.84-8.8a12.22,12.22,0,0,0-1.42-1.86,3.2,3.2,0,0,0-1.28-.82,7.07,7.07,0,0,0-1.66-.24v-.8a6,6,0,0,0,2.82-.66,6.11,6.11,0,0,0,1.9-1.58l3.84-4.88a12.79,12.79,0,0,0,1.8-2.84,1.66,1.66,0,0,0,0-1.78,3,3,0,0,0-2.2-.66v-.8l2.36.08c.8,0,1.55,0,2.24,0C504.59,172.51,505.72,172.47,506.52,172.39Z"/><path class="cls-4" d="M529.76,172.39c-.11,1-.18,2-.22,2.94s-.06,1.68-.06,2.18,0,1.24,0,1.8.05,1.06.08,1.48h-.92a25.41,25.41,0,0,0-.76-4.42,3.87,3.87,0,0,0-1.68-2.34,7.45,7.45,0,0,0-3.72-.72H520a7.55,7.55,0,0,0-2.06.22,1.4,1.4,0,0,0-.94.92,7.3,7.3,0,0,0-.24,2.18v19.84a5.91,5.91,0,0,0,.3,2.16,1.65,1.65,0,0,0,1.18,1,12.44,12.44,0,0,0,2.56.32v.8c-.69-.05-1.57-.08-2.64-.1l-3.24,0-2.92,0c-.91,0-1.64,0-2.2.1v-.8a8.07,8.07,0,0,0,2.06-.32,1.43,1.43,0,0,0,.94-1,7.28,7.28,0,0,0,.24-2.16V176.63a7.3,7.3,0,0,0-.24-2.18,1.52,1.52,0,0,0-.94-1,7,7,0,0,0-2.06-.3v-.8l4.2.08c1.49,0,2.9,0,4.22,0h3.18c1.23,0,2.62,0,4.18,0S528.53,172.45,529.76,172.39Zm-6.2,14.08v.8h-8v-.8Zm.76-5.28c-.11,1.52-.15,2.68-.14,3.48s0,1.54,0,2.2,0,1.4,0,2.2.09,2,.2,3.48h-.92c-.11-.85-.23-1.68-.38-2.5a3.87,3.87,0,0,0-1-2,3.34,3.34,0,0,0-2.5-.78v-.8a2.9,2.9,0,0,0,2.46-.92,4.65,4.65,0,0,0,.9-2.16c.13-.82.25-1.56.36-2.2Z"/><path class="cls-4" d="M542,172.19l9.76,25.16a4.14,4.14,0,0,0,1.36,2,2.81,2.81,0,0,0,1.4.54v.8c-.53-.05-1.19-.08-2-.1l-2.32,0-2.92,0c-.91,0-1.64,0-2.2.1v-.8a3.84,3.84,0,0,0,2.6-.7c.37-.41.29-1.3-.24-2.66L540,176.67l.64-.52-7,18.08a9.21,9.21,0,0,0-.8,3.38,1.92,1.92,0,0,0,.92,1.74,5.25,5.25,0,0,0,2.56.56v.8c-.75-.05-1.53-.08-2.34-.1l-2.26,0-1.7,0c-.47,0-.9,0-1.3.1v-.8a3.92,3.92,0,0,0,1.64-.94,6.33,6.33,0,0,0,1.52-2.54l9.4-24.24H542Zm4.88,17v.8H534.92l.4-.8Z"/><path class="cls-4" d="M564.48,172a7.94,7.94,0,0,1,3,.46,11.35,11.35,0,0,1,1.84,1,8.26,8.26,0,0,0,.78.42,1.27,1.27,0,0,0,.58.14c.43,0,.72-.58.88-1.76h.92c0,.46-.06,1-.1,1.62s-.07,1.46-.08,2.48,0,2.38,0,4.06h-.92a11.6,11.6,0,0,0-.84-3.68,7.13,7.13,0,0,0-2.1-2.88,5.61,5.61,0,0,0-3.62-1.12,5,5,0,0,0-3.5,1.28,4.39,4.39,0,0,0-1.38,3.36,4.89,4.89,0,0,0,.92,3,9,9,0,0,0,2.46,2.2c1,.66,2.14,1.36,3.34,2.1a42.18,42.18,0,0,1,3.7,2.54,10.74,10.74,0,0,1,2.56,2.78,6.85,6.85,0,0,1,.94,3.68,7.31,7.31,0,0,1-1.16,4.24,7.12,7.12,0,0,1-3.08,2.52,10.45,10.45,0,0,1-4.24.84,9.57,9.57,0,0,1-3.36-.48,14.1,14.1,0,0,1-2.12-1,2.94,2.94,0,0,0-1.36-.56c-.43,0-.72.59-.88,1.76h-.92c0-.56.09-1.22.1-2s0-1.75,0-3,0-2.77,0-4.64h.92a16.8,16.8,0,0,0,.9,4.48,7.35,7.35,0,0,0,2.28,3.34,6.28,6.28,0,0,0,4.1,1.26,5.69,5.69,0,0,0,3.58-1.26,4.82,4.82,0,0,0,1.62-4.06,5.28,5.28,0,0,0-1.72-4,27.65,27.65,0,0,0-4.52-3.28c-1.25-.77-2.43-1.56-3.52-2.36a9.85,9.85,0,0,1-2.62-2.78,7.11,7.11,0,0,1-1-3.82A6.72,6.72,0,0,1,558,175a6.45,6.45,0,0,1,2.78-2.28A9.27,9.27,0,0,1,564.48,172Z"/><path class="cls-4" d="M599.52,172.39c-.11,1-.18,2-.22,2.94s-.06,1.68-.06,2.18,0,1.24,0,1.8.05,1.06.08,1.48h-.92a25.41,25.41,0,0,0-.76-4.42A3.87,3.87,0,0,0,596,174a7.45,7.45,0,0,0-3.72-.72h-2.16v22.76a7.21,7.21,0,0,0,.3,2.4,1.71,1.71,0,0,0,1.18,1.08,10.3,10.3,0,0,0,2.56.36v.8c-.7-.05-1.58-.08-2.64-.1l-3.24,0-3.38,0c-1.06,0-1.9,0-2.54.1v-.8a10.3,10.3,0,0,0,2.56-.36,1.73,1.73,0,0,0,1.18-1.08,7.21,7.21,0,0,0,.3-2.4V173.31h-2.16a7.44,7.44,0,0,0-3.7.72,3.85,3.85,0,0,0-1.7,2.34,24.49,24.49,0,0,0-.76,4.42h-.92a14.8,14.8,0,0,0,.1-1.48c0-.56,0-1.16,0-1.8s0-1.23-.06-2.18-.11-1.92-.22-2.94l3.66.08c1.32,0,2.64,0,4,0h7.26c1.32,0,2.64,0,4,0Z"/><line class="cls-5" x1="88.78" y1="185.45" x2="218.78" y2="185.45"/><line class="cls-5" x1="635.92" y1="185.45" x2="765.92" y2="185.45"/></svg>